REM DIRINDEX 1\5,1\2\6,1\2\7,1\3\8,1\3\9,1\4\10,1\4\11,1\4\12
REM DIRNAME folder01,folder02,folder03,folder04,folder05,folder06,folder07,folder08,folder09,folder10,folder11,folder12
TITLE ""
FILE "EJE_DB3000_5th_3B_09.mp3" MP3
  TRACK 01 AUDIO
    TITLE "0:"
    INDEX 01 00:00:00
  TRACK 02 AUDIO
    TITLE "10:cjc026_08613"
    INDEX 01 00:00:07
  TRACK 03 AUDIO
    TITLE "0:"
    INDEX 01 00:01:09
  TRACK 04 AUDIO
    TITLE "11:cjc026_08614"
    INDEX 01 00:01:36
  TRACK 05 AUDIO
    TITLE "0:"
    INDEX 01 00:02:38
  TRACK 06 AUDIO
    TITLE "12:cjc026_08615"
    INDEX 01 00:02:65
  TRACK 07 AUDIO
    TITLE "0:"
    INDEX 01 00:03:66
  TRACK 08 AUDIO
    TITLE "10:cjc026_08616"
    INDEX 01 00:04:21
  TRACK 09 AUDIO
    TITLE "0:"
    INDEX 01 00:05:16
  TRACK 10 AUDIO
    TITLE "11:cjc026_08617"
    INDEX 01 00:05:44
  TRACK 11 AUDIO
    TITLE "0:"
    INDEX 01 00:06:47
  TRACK 12 AUDIO
    TITLE "12:cjc026_08618"
    INDEX 01 00:07:00
  TRACK 13 AUDIO
    TITLE "0:"
    INDEX 01 00:07:70
  TRACK 14 AUDIO
    TITLE "10:cjc026_08619"
    INDEX 01 00:08:23
  TRACK 15 AUDIO
    TITLE "0:"
    INDEX 01 00:09:20
  TRACK 16 AUDIO
    TITLE "11:cjc026_08620"
    INDEX 01 00:09:45
  TRACK 17 AUDIO
    TITLE "0:"
    INDEX 01 00:10:39
  TRACK 18 AUDIO
    TITLE "12:cjc026_08621"
    INDEX 01 00:10:65
  TRACK 19 AUDIO
    TITLE "0:"
    INDEX 01 00:11:62
  TRACK 20 AUDIO
    TITLE "10:cjc026_08622"
    INDEX 01 00:12:12
  TRACK 21 AUDIO
    TITLE "0:"
    INDEX 01 00:13:06
  TRACK 22 AUDIO
    TITLE "11:cjc026_08623"
    INDEX 01 00:13:32
  TRACK 23 AUDIO
    TITLE "0:"
    INDEX 01 00:14:23
  TRACK 24 AUDIO
    TITLE "12:cjc026_08624"
    INDEX 01 00:14:51
  TRACK 25 AUDIO
    TITLE "0:"
    INDEX 01 00:15:44
  TRACK 26 AUDIO
    TITLE "10:cjc026_08625"
    INDEX 01 00:15:70
  TRACK 27 AUDIO
    TITLE "0:"
    INDEX 01 00:16:73
  TRACK 28 AUDIO
    TITLE "11:cjc026_08626"
    INDEX 01 00:17:23
  TRACK 29 AUDIO
    TITLE "0:"
    INDEX 01 00:18:19
  TRACK 30 AUDIO
    TITLE "12:cjc026_08627"
    INDEX 01 00:18:44
  TRACK 31 AUDIO
    TITLE "0:"
    INDEX 01 00:19:48
  TRACK 32 AUDIO
    TITLE "10:cjc026_08628"
    INDEX 01 00:19:73
  TRACK 33 AUDIO
    TITLE "0:"
    INDEX 01 00:20:73
  TRACK 34 AUDIO
    TITLE "11:cjc026_08629"
    INDEX 01 00:21:25
  TRACK 35 AUDIO
    TITLE "0:"
    INDEX 01 00:22:36
  TRACK 36 AUDIO
    TITLE "12:cjc026_08630"
    INDEX 01 00:22:62
  TRACK 37 AUDIO
    TITLE "0:"
    INDEX 01 00:23:61
  TRACK 38 AUDIO
    TITLE "10:cjc026_08631"
    INDEX 01 00:24:12
  TRACK 39 AUDIO
    TITLE "0:"
    INDEX 01 00:25:09
  TRACK 40 AUDIO
    TITLE "11:cjc026_08632"
    INDEX 01 00:25:39
  TRACK 41 AUDIO
    TITLE "0:"
    INDEX 01 00:26:42
  TRACK 42 AUDIO
    TITLE "12:cjc026_08633"
    INDEX 01 00:26:67
  TRACK 43 AUDIO
    TITLE "0:"
    INDEX 01 00:27:65
  TRACK 44 AUDIO
    TITLE "10:cjc026_08634"
    INDEX 01 00:28:17
  TRACK 45 AUDIO
    TITLE "0:"
    INDEX 01 00:29:17
  TRACK 46 AUDIO
    TITLE "11:cjc026_08635"
    INDEX 01 00:29:46
  TRACK 47 AUDIO
    TITLE "0:"
    INDEX 01 00:31:29
  TRACK 48 AUDIO
    TITLE "12:cjc026_08636"
    INDEX 01 00:31:55
  TRACK 49 AUDIO
    TITLE "0:"
    INDEX 01 00:32:54
  TRACK 50 AUDIO
    TITLE "10:cjc026_08637"
    INDEX 01 00:33:07
  TRACK 51 AUDIO
    TITLE "0:"
    INDEX 01 00:33:71
  TRACK 52 AUDIO
    TITLE "11:cjc026_08638"
    INDEX 01 00:34:22
  TRACK 53 AUDIO
    TITLE "0:"
    INDEX 01 00:35:17
  TRACK 54 AUDIO
    TITLE "12:cjc026_08639"
    INDEX 01 00:35:45
  TRACK 55 AUDIO
    TITLE "0:"
    INDEX 01 00:36:36
  TRACK 56 AUDIO
    TITLE "10:cjc026_08640"
    INDEX 01 00:36:62
  TRACK 57 AUDIO
    TITLE "0:"
    INDEX 01 00:37:61
  TRACK 58 AUDIO
    TITLE "11:cjc026_08641"
    INDEX 01 00:38:14
  TRACK 59 AUDIO
    TITLE "0:"
    INDEX 01 00:39:17
  TRACK 60 AUDIO
    TITLE "12:cjc026_08642"
    INDEX 01 00:39:43
  TRACK 61 AUDIO
    TITLE "0:"
    INDEX 01 00:40:42
  TRACK 62 AUDIO
    TITLE "10:cjc026_08643"
    INDEX 01 00:40:70
  TRACK 63 AUDIO
    TITLE "0:"
    INDEX 01 00:42:02
  TRACK 64 AUDIO
    TITLE "11:cjc026_08644"
    INDEX 01 00:42:29
  TRACK 65 AUDIO
    TITLE "0:"
    INDEX 01 00:43:39
  TRACK 66 AUDIO
    TITLE "12:cjc026_08645"
    INDEX 01 00:43:64
  TRACK 67 AUDIO
    TITLE "0:"
    INDEX 01 00:44:71
